<?xml version="1.0" encoding="utf-8"?>
<!-- Generator: Adobe Illustrator 28.0.0, SVG Export Plug-In . SVG Version: 6.00 Build 0)  -->
<svg version="1.1" id="Layer_1" xmlns="http://www.w3.org/2000/svg" xmlns:xlink="http://www.w3.org/1999/xlink" x="0px" y="0px"
	 viewBox="0 0 42 42" style="enable-background:new 0 0 42 42;" xml:space="preserve">
<style type="text/css">
	.st0{fill:none;stroke:#000000;stroke-width:2;stroke-linecap:round;stroke-linejoin:round;}
</style>
<g transform="translate(-224.249 -134.18)">
	<circle class="st0" cx="245.2" cy="155.2" r="20"/>
	<line class="st0" x1="245.1" y1="143" x2="245.1" y2="144.8"/>
	<path class="st0" d="M239.1,150.4c0,1,0.6,4.4,6.1,4.4"/>
	<path class="st0" d="M238.7,159.7c0,0,0.1,5.4,6.5,5.4c5.9,0,6.4-4.3,6.4-5.6c0-1.5-0.9-4.8-6.4-4.8"/>
	<path class="st0" d="M251.6,159.6c0-1.5-0.9-4.8-6.4-4.8"/>
	<line class="st0" x1="245.1" y1="145.9" x2="245.1" y2="167.9"/>
	<path class="st0" d="M251.1,149.5c0,0,0.5-4.2-5.9-4.2c-5.9,0-6.1,3.9-6.1,5.1"/>
	<path class="st0" d="M238.7,159.7c0,0,0.1,5.4,6.5,5.4c5.9,0,6.4-4.3,6.4-5.6"/>
</g>
</svg>
