<?xml version="1.0" encoding="utf-8"?>
<!-- Generator: Adobe Illustrator 28.0.0, SVG Export Plug-In . SVG Version: 6.00 Build 0)  -->
<svg version="1.1" id="Layer_1" xmlns="http://www.w3.org/2000/svg" xmlns:xlink="http://www.w3.org/1999/xlink" x="0px" y="0px"
	 viewBox="0 0 48 46.8" style="enable-background:new 0 0 48 46.8;" xml:space="preserve">
<style type="text/css">
	.st0{fill:none;stroke:#000000;stroke-width:2;stroke-linecap:round;stroke-linejoin:round;}
</style>
<path class="st0" d="M18.2,11.9c-2,0.5-3.9,1.3-5.7,2.4l0,0l-5.5-1L8.3,18c-1.4,1.7-2.3,3.6-2.8,5.7H2.7c-0.9,0-1.7,0.7-1.7,1.7v8
	c0,0.9,0.7,1.7,1.7,1.7h4.9c0.3,0,3.2,2.4,4.7,3.4v5.6c0,0.9,0.7,1.7,1.7,1.7H17c0.9,0,1.7-0.7,1.7-1.7v-2.9
	c2.8,0.6,5.7,0.7,8.6,0.2v2.7c0,0.9,0.7,1.7,1.7,1.7h3.1c0.9,0,1.7-0.7,1.7-1.7v-4.8c5-2.7,8.3-7.4,8.3-12.8
	c0-7.2-6.1-13.3-14.2-14.9"/>
<path class="st0" d="M16.3,18.4L16.3,18.4c4.2-3.1,10-3.1,14.2,0l0,0"/>
<circle class="st0" cx="11.9" cy="24.1" r="0.3"/>
<circle class="st0" cx="22.9" cy="7.5" r="6.5"/>
<path class="st0" d="M47,21.6c-0.1,2.6-2.3,4.7-4.9,4.6"/>
</svg>
