<?xml version="1.0" encoding="utf-8"?>
<!-- Generator: Adobe Illustrator 28.0.0, SVG Export Plug-In . SVG Version: 6.00 Build 0)  -->
<svg version="1.1" id="Layer_1" xmlns="http://www.w3.org/2000/svg" xmlns:xlink="http://www.w3.org/1999/xlink" x="0px" y="0px"
	 viewBox="0 0 46.5 46.5" style="enable-background:new 0 0 46.5 46.5;" xml:space="preserve">
<style type="text/css">
	.st0{fill:none;}
	.st1{fill:#EB1700;}
	.st2{font-family:'Helvetica-Bold';}
	.st3{font-size:22px;}
</style>
<g transform="translate(-472.5 -686.913)">
	<g transform="translate(472.5 686.913)">
		<g>
			<path class="st0" d="M23.2,0c12.8,0,23.2,10.4,23.2,23.2S36.1,46.5,23.2,46.5S0,36.1,0,23.2c0,0,0,0,0,0C0,10.4,10.4,0,23.2,0z"
				/>
			<path class="st1" d="M23.2,3C17.8,3,12.8,5.1,8.9,8.9S3,17.8,3,23.2s2.1,10.5,5.9,14.3s8.9,5.9,14.3,5.9s10.5-2.1,14.3-5.9
				s5.9-8.9,5.9-14.3s-2.1-10.5-5.9-14.3S28.7,3,23.2,3 M23.2,0c12.8,0,23.2,10.4,23.2,23.2S36.1,46.5,23.2,46.5S0,36.1,0,23.2
				S10.4,0,23.2,0z"/>
		</g>
		<text transform="matrix(1 0 0 1 18.496 31)" class="st1 st2 st3">1</text>
	</g>
</g>
</svg>
