<?xml version="1.0" encoding="utf-8"?>
<!-- Generator: Adobe Illustrator 28.0.0, SVG Export Plug-In . SVG Version: 6.00 Build 0)  -->
<svg version="1.1" id="Layer_1" xmlns="http://www.w3.org/2000/svg" xmlns:xlink="http://www.w3.org/1999/xlink" x="0px" y="0px"
	 viewBox="0 0 46.5 46.5" style="enable-background:new 0 0 46.5 46.5;" xml:space="preserve">
<style type="text/css">
	.st0{fill:none;}
	.st1{fill:#EB1700;}
	.st2{font-family:'Helvetica-Bold';}
	.st3{font-size:22px;}
</style>
<g transform="translate(472.5 1528.316)">
	<g>
		<path class="st0" d="M-449.3-1528.3c12.8,0,23.2,10.4,23.2,23.2c0,12.8-10.4,23.2-23.2,23.2c-12.8,0-23.2-10.4-23.2-23.2
			c0,0,0,0,0,0C-472.5-1517.9-462.1-1528.3-449.3-1528.3z"/>
		<path class="st1" d="M-449.3-1525.3c-5.4,0-10.5,2.1-14.3,5.9c-3.8,3.8-5.9,8.9-5.9,14.3s2.1,10.5,5.9,14.3
			c3.8,3.8,8.9,5.9,14.3,5.9s10.5-2.1,14.3-5.9c3.8-3.8,5.9-8.9,5.9-14.3s-2.1-10.5-5.9-14.3
			C-438.8-1523.2-443.8-1525.3-449.3-1525.3 M-449.3-1528.3c12.8,0,23.2,10.4,23.2,23.2c0,12.8-10.4,23.2-23.2,23.2
			s-23.2-10.4-23.2-23.2C-472.5-1517.9-462.1-1528.3-449.3-1528.3z"/>
	</g>
	<text transform="matrix(1 0 0 1 -455.004 -1497.316)" class="st1 st2 st3">2</text>
</g>
</svg>
