<svg xmlns="http://www.w3.org/2000/svg" width="43.159" height="28.224" viewBox="0 0 43.159 28.224">
  <g id="Group_596" data-name="Group 596" transform="translate(1.5 1.5)">
    <path id="Path_364" data-name="Path 364" d="M14.492,108.626a1.5,1.5,0,0,1-1.334-2.185c.608-1.192,1.158-3.244.563-3.838a12.2,12.2,0,0,1-3.244-8.752,13.434,13.434,0,1,1,9.631,12.9C19.268,107.648,17.633,108.626,14.492,108.626ZM23.926,83.4A10.46,10.46,0,0,0,13.477,93.851a9.246,9.246,0,0,0,2.365,6.63c1.374,1.374,1.244,3.394.893,4.846l-.005.022a2.125,2.125,0,0,0,1.336-.849,1.5,1.5,0,0,1,1.987-.941A10.45,10.45,0,1,0,23.926,83.4Z" transform="translate(-11.977 -81.902)" fill="#ce0024"/>
    <path id="Path_365" data-name="Path 365" d="M185.636,108.626c-3.141,0-4.777-.979-5.616-1.877a13.452,13.452,0,1,1,9.631-12.9,12.2,12.2,0,0,1-3.244,8.752c-.3.3-.333,1.051-.1,2.02a9.38,9.38,0,0,0,.661,1.817,1.5,1.5,0,0,1-1.333,2.187Zm-3.575-4.127a2.123,2.123,0,0,0,1.335.849c-.376-1.564-.452-3.526.889-4.867a9.246,9.246,0,0,0,2.365-6.63,10.438,10.438,0,1,0-6.576,9.708,1.5,1.5,0,0,1,1.987.941Z" transform="translate(-147.992 -81.902)" fill="#00267b"/>
    <path id="Path_366" data-name="Path 366" d="M167.738,109.767l1.021.949a13.45,13.45,0,0,1,0,19.723l-1.02.946-1.02-.946a13.451,13.451,0,0,1,0-19.723Zm0,17.382a10.455,10.455,0,0,0,0-13.144,10.458,10.458,0,0,0,0,13.144Z" transform="translate(-147.694 -108.62)" fill="#a52a86"/>
  </g>
</svg>
